<?xml version="1.0" encoding="UTF-8"?>
<svg id="Layer_1" xmlns="http://www.w3.org/2000/svg" version="1.1" viewBox="0 0 940 940">
  <!-- Generator: Adobe Illustrator 29.6.1, SVG Export Plug-In . SVG Version: 2.1.1 Build 9)  -->
  <defs>
    <style>
      .st0 {
        fill: #fff;
        stroke: #000;
        stroke-miterlimit: 10;
      }
    </style>
  </defs>
  <rect class="st0" width="940" height="940"/>
  <path d="M301.72,462.54c-10.33-30.59-19.59-60.93-33.81-89.4-2.99-5.98-6.27-11.74-10.88-16.61-9.56-10.1-23.07-7.19-27.8,6.04-1.98,5.55-2.58,11.36-2.58,17.32.07,99.77.04,199.55.02,299.32,0,7.73-3.92,11.6-11.77,11.6-33.77,0-67.54-.21-101.31.17-7.55.09-9.41-2.37-9.39-9.6.22-112.57-.29-225.13.5-337.69.24-33.08,10.33-63.53,36-86.7,14.68-13.24,32.29-20.51,51.57-23.64,35.47-5.76,70.74-5.53,105.3,5.58,34.86,11.2,59.74,34.38,78.04,65.51,19.6,33.35,31.31,69.85,42.93,106.38,19.13,60.09,36.94,120.62,59.02,179.73,5.36,14.35,11.23,28.54,18.9,41.92,13.22,23.07,31.45,40.73,55.29,52.58,1.93.96,4.5,1.4,4.8,4.48-2.6,2.34-5.79,1.26-8.66,1.27-37.09.07-74.19.19-111.29-.05-30.12-.19-52.95-14.15-68.78-39.14-14.37-22.67-21.6-48.49-29.77-73.75-12.34-38.15-24.1-76.49-36.32-115.31h0Z"/>
  <path d="M531.34,635.31c-24.09-29.83-36.84-63.9-43.22-100.76-2.67-15.45-3.06-30.96-3.04-46.56.09-81.34.04-162.67.05-244,0-10.18.04-10.21,10-10.21,36.58-.02,73.15,0,109.73,0,10.17,0,10.22.04,10.22,10.16.02,92.34.04,184.67,0,277,0,19.59,6.43,36.05,22.61,47.87,8.76,6.41,18.78,8.96,29.56,8.95,52.44-.03,104.87.13,157.29-.17,7.61-.05,10.26,1.94,10.17,9.85-.39,31.71-.29,63.43-.04,95.14.05,6.4-2.16,8.35-8.43,8.33-62.66-.19-125.35.76-187.98-.49-40.61-.81-74.02-19.42-101.46-48.98-1.74-1.87-3.42-3.8-5.46-6.15h0Z"/>
</svg>